# xmcd CD database file
#
# Track frame offsets:
#	150
#	21059
#	44143
#	70844
#	85245
#	114046
#	142735
#	173713
#	201088
#	220469
#	250215
#
# Disc length: 4702 seconds
#
# Revision: 0
# Processed by: cddbd v1.5.2PL0 Copyright (c) Steve Scherf et al.
# Submitted via: CDex 1.51
#
DISCID=95125c0b
DTITLE=The Sunset Lounge Orchestra - The George Michael Cool Down Experience
DYEAR=2007
DGENRE=New Age
TTITLE0=A Different Corner
TTITLE1=Careless Whispers
TTITLE2=Everything She Wants
TTITLE3=Faith
TTITLE4=Fast Love
TTITLE5=Father Figure
TTITLE6=Jesus to a Child
TTITLE7=Last Christmas
TTITLE8=One More Try
TTITLE9=Outside
TTITLE10=All Trax Megamix
EXTD=YEAR: 2007
EXTT0=
EXTT1=
EXTT2=
EXTT3=
EXTT4=
EXTT5=
EXTT6=
EXTT7=
EXTT8=
EXTT9=
EXTT10=
PLAYORDER=
